<?xml version="1.0" standalone="no"?>
<!DOCTYPE svg PUBLIC "-//W3C//DTD SVG 20010904//EN"
 "http://www.w3.org/TR/2001/REC-SVG-20010904/DTD/svg10.dtd">
<svg version="1.0" xmlns="http://www.w3.org/2000/svg"
 width="1200.000000pt" height="628.000000pt" viewBox="0 0 1200.000000 628.000000"
 preserveAspectRatio="xMidYMid meet">
<metadata>
Created by potrace 1.16, written by Peter Selinger 2001-2019
</metadata>
<g transform="translate(0.000000,628.000000) scale(0.100000,-0.100000)"
fill="#000000" stroke="none">
<path d="M6900 4967 c0 -383 2 -446 15 -457 8 -7 15 -18 15 -24 0 -16 38 -39
85 -51 44 -11 1243 -12 1308 0 22 4 51 19 70 37 l31 31 6 146 c3 80 4 148 3
150 -2 3 -24 0 -48 -7 -54 -14 -120 -16 -144 -3 -10 6 -41 11 -70 12 -29 2
-59 9 -66 16 -8 7 -27 13 -44 13 -17 0 -31 5 -31 10 0 6 -6 10 -14 10 -7 0
-19 7 -26 15 -7 8 -21 15 -31 15 -11 0 -19 5 -19 10 0 6 -5 10 -10 10 -12 0
-142 93 -181 130 -15 14 -40 35 -55 47 -16 12 -40 31 -54 43 -14 12 -38 31
-54 43 -15 12 -39 32 -52 45 -12 12 -29 22 -36 22 -7 0 -25 11 -40 25 -15 14
-34 25 -43 25 -9 0 -18 7 -21 15 -4 8 -17 15 -30 15 -13 0 -24 5 -24 10 0 6
-10 10 -23 10 -13 0 -32 7 -43 15 -10 8 -29 15 -41 15 -12 0 -25 5 -28 10 -3
6 -32 10 -63 10 -31 0 -68 6 -82 13 -14 8 -56 15 -93 16 l-67 2 0 -444z"/>
<path d="M6660 5371 c-24 -13 -82 -33 -112 -38 -16 -3 -28 -9 -28 -14 0 -5
-11 -9 -24 -9 -14 0 -31 -7 -40 -15 -8 -8 -21 -15 -28 -16 -7 0 -26 -9 -43
-20 -16 -10 -37 -21 -45 -25 -14 -5 -32 -14 -95 -48 -11 -6 -22 -14 -25 -17
-3 -3 -21 -14 -40 -25 -19 -10 -37 -21 -40 -24 -10 -10 -90 -60 -96 -60 -3 0
-23 -13 -44 -30 -21 -16 -43 -30 -49 -30 -6 0 -11 -4 -11 -10 0 -5 -5 -10 -11
-10 -6 0 -25 -11 -43 -25 -18 -14 -37 -25 -41 -25 -4 0 -23 -11 -41 -25 -18
-14 -36 -25 -39 -25 -3 0 -21 -10 -38 -23 -18 -13 -50 -32 -72 -43 -22 -10
-41 -22 -43 -26 -2 -5 -12 -8 -23 -8 -10 0 -19 -4 -19 -8 0 -9 -69 -42 -87
-42 -6 0 -16 -7 -23 -15 -7 -8 -23 -15 -36 -15 -12 0 -26 -4 -29 -10 -3 -5
-14 -10 -24 -10 -10 0 -32 -7 -47 -15 -16 -8 -40 -15 -54 -15 -15 0 -30 -4
-35 -9 -6 -5 -23 -11 -40 -13 -30 -3 -30 -3 -27 -63 1 -33 7 -61 12 -63 6 -2
10 -9 10 -15 0 -15 36 -40 75 -50 37 -11 1295 -15 1295 -5 0 5 13 8 30 8 44 0
86 48 94 106 9 66 8 834 -1 833 -5 0 -15 -4 -23 -8z"/>
<path d="M3410 4850 c0 -200 4 -310 10 -310 6 0 10 -8 10 -18 0 -30 53 -78 96
-87 21 -5 314 -9 649 -9 720 -1 711 -2 758 81 14 25 24 92 15 93 -2 1 -21 3
-43 6 -22 3 -56 10 -75 15 -19 5 -63 9 -97 9 -35 0 -63 4 -63 10 0 6 -20 10
-44 10 -24 0 -57 7 -72 15 -16 8 -39 15 -51 15 -12 0 -25 5 -28 10 -3 6 -16
10 -29 10 -12 0 -31 7 -42 15 -10 8 -31 15 -46 15 -15 0 -30 5 -33 10 -3 6
-14 10 -24 10 -10 0 -24 7 -31 15 -7 8 -21 15 -32 15 -11 0 -26 6 -34 14 -8 8
-23 13 -33 11 -11 -2 -22 3 -25 11 -3 8 -14 14 -25 14 -22 0 -81 31 -81 43 0
4 -11 7 -24 7 -13 0 -29 7 -36 15 -7 8 -16 13 -20 10 -5 -3 -15 2 -23 10 -9 8
-23 15 -31 15 -9 0 -16 5 -16 10 0 6 -9 10 -20 10 -11 0 -23 7 -26 15 -4 8
-14 15 -24 15 -23 0 -80 29 -80 41 0 5 -11 9 -25 9 -14 0 -25 4 -25 8 0 5 -19
16 -42 26 -68 28 -108 50 -108 58 0 5 -13 8 -29 8 -16 0 -34 7 -41 15 -7 8
-23 15 -36 15 l-24 0 0 -310z"/>
<path d="M10724 3635 c-2 -5 -3 -363 -2 -795 l3 -785 68 -3 67 -3 0 798 0 798
-66 0 c-37 0 -68 -4 -70 -10z"/>
<path d="M5363 3613 c-2 -6 -3 -25 -1 -42 l3 -32 239 0 c158 0 244 -3 253 -11
10 -8 13 -153 13 -745 l0 -734 58 3 57 3 3 736 2 737 26 6 c14 4 114 6 222 6
108 0 203 -1 210 0 8 0 12 16 12 45 l0 44 -546 -2 c-402 -1 -548 -5 -551 -14z"/>
<path d="M9518 3213 c-1 -5 -23 -21 -48 -37 -114 -74 -186 -156 -253 -287 -31
-63 -57 -120 -57 -126 0 -7 -4 -13 -10 -13 -5 0 -10 -6 -10 -14 0 -14 -30 -77
-41 -86 -3 -3 -9 -17 -13 -32 -3 -16 -11 -28 -16 -28 -6 0 -10 -6 -10 -13 0
-7 -26 -66 -58 -132 -33 -66 -67 -139 -78 -162 -31 -68 -46 -58 -113 77 -44
87 -54 107 -71 138 -5 9 -24 46 -41 82 -18 36 -36 67 -41 68 -4 2 -8 10 -8 18
0 8 -11 32 -25 54 -14 22 -25 46 -25 54 0 8 -4 18 -10 21 -5 3 -24 36 -41 73
-18 37 -35 69 -38 72 -3 3 -26 44 -51 93 l-44 87 -62 0 -62 0 11 -30 c6 -16
15 -30 19 -30 4 0 8 -8 8 -19 0 -10 7 -24 15 -31 8 -7 15 -21 15 -30 0 -10 3
-20 8 -22 4 -1 38 -66 77 -143 38 -77 79 -157 92 -177 13 -21 23 -44 23 -53 0
-8 5 -15 10 -15 6 0 10 -9 10 -19 0 -11 4 -22 9 -26 5 -3 47 -81 92 -173 46
-92 94 -184 106 -204 13 -21 23 -43 23 -49 0 -6 8 -21 18 -33 16 -20 38 -24
100 -17 6 0 22 24 34 51 12 28 25 50 30 50 4 0 8 11 8 24 0 13 7 29 15 36 8 7
15 16 15 21 0 5 23 56 50 114 28 58 50 109 50 115 0 5 5 10 10 10 6 0 10 7 10
16 0 8 10 34 23 57 13 23 32 63 42 90 10 26 22 47 26 47 5 0 9 7 9 15 0 8 17
49 38 92 22 43 52 105 68 138 48 102 144 241 194 282 13 11 12 12 -7 13 -12 0
-23 -3 -25 -7z"/>
<path d="M10060 3175 c-64 -13 -77 -18 -148 -52 -56 -28 -142 -101 -142 -121
0 -7 -4 -12 -8 -12 -13 0 -92 -157 -92 -183 -1 -12 -7 -33 -15 -47 -10 -18
-14 -60 -14 -150 0 -90 4 -132 14 -150 8 -14 14 -34 14 -45 1 -21 51 -128 64
-133 4 -2 7 -9 7 -16 0 -21 124 -140 171 -163 90 -46 126 -53 265 -53 140 0
169 6 266 56 51 26 98 62 98 76 0 4 -15 8 -33 8 -23 0 -41 -8 -57 -25 -13 -14
-29 -25 -37 -25 -7 0 -13 -4 -13 -10 0 -5 -12 -13 -27 -16 -16 -4 -32 -10 -38
-14 -30 -22 -155 -32 -221 -18 -52 11 -73 21 -130 62 -61 44 -154 180 -154
225 0 11 -4 22 -9 25 -11 7 -36 181 -33 235 1 24 7 50 13 57 9 11 91 14 408
16 l396 3 3 29 c4 32 -24 132 -39 142 -5 3 -9 14 -9 25 0 10 -3 19 -8 19 -4 0
-16 17 -27 37 -32 58 -133 151 -200 182 -55 27 -159 52 -195 48 -8 0 -40 -6
-70 -12z m170 -33 c76 -30 106 -49 147 -96 65 -74 93 -138 93 -211 0 -57 -2
-64 -22 -71 -39 -13 -588 -11 -607 2 -20 15 -17 118 4 151 8 12 15 27 15 33 0
15 51 89 86 123 24 24 83 56 144 80 31 11 96 6 140 -11z"/>
<path d="M7010 3160 c-8 -5 -28 -10 -45 -10 -16 0 -43 -7 -59 -15 -15 -8 -33
-15 -38 -15 -6 0 -38 -18 -71 -40 -33 -23 -66 -39 -74 -36 -8 3 -13 22 -13 51
l0 45 -61 -5 c-33 -2 -65 -8 -71 -11 -11 -7 -4 -1061 7 -1073 3 -3 33 -7 66
-8 l59 -2 0 441 c0 495 -5 462 78 540 91 86 197 116 325 93 31 -6 41 -4 52 11
22 31 0 44 -74 44 -36 0 -73 -5 -81 -10z"/>
<path d="M7645 3158 c-16 -5 -43 -16 -58 -24 -16 -8 -35 -14 -43 -14 -8 0 -14
-3 -14 -7 0 -5 -22 -21 -48 -36 -44 -26 -104 -97 -138 -162 -25 -48 -20 -55
45 -55 l59 0 12 53 c6 28 17 63 23 77 15 34 91 106 130 124 45 21 137 43 170
41 53 -3 142 -29 177 -51 49 -31 66 -54 80 -110 11 -45 11 -53 -10 -96 -24
-51 -106 -132 -162 -159 -42 -21 -147 -69 -173 -80 -250 -100 -304 -134 -366
-231 -27 -42 -31 -57 -32 -121 -1 -121 34 -174 150 -227 66 -31 70 -31 221
-31 138 0 161 3 240 27 48 15 96 33 106 41 26 17 46 0 46 -39 l0 -29 58 3 57
3 -3 454 c-3 267 -8 458 -13 465 -6 6 -18 27 -28 46 -23 43 -133 130 -166 130
-13 0 -27 5 -30 10 -8 13 -250 11 -290 -2z m409 -414 c3 -9 6 -111 6 -227 0
-184 -3 -217 -19 -252 -20 -45 -69 -96 -109 -115 -15 -7 -36 -17 -47 -23 -63
-33 -286 -48 -345 -23 -46 19 -89 62 -96 95 -3 14 -9 34 -15 43 -12 23 -12
115 1 123 6 3 10 13 10 21 0 47 108 152 190 184 19 7 40 17 45 21 6 3 25 10
43 14 17 3 32 11 32 16 0 5 7 9 17 9 18 0 188 75 203 90 8 8 64 39 71 40 4 0
10 -7 13 -16z"/>
<path d="M1996 2524 c-10 -27 -7 -462 4 -469 6 -4 10 31 10 98 0 121 11 142
54 110 14 -10 28 -25 33 -34 4 -10 31 -43 59 -75 29 -33 61 -70 72 -84 11 -14
23 -22 27 -18 4 4 0 14 -8 23 -9 8 -33 37 -54 63 -21 26 -52 62 -70 80 -32 35
-34 57 -5 65 10 3 -6 5 -35 6 -41 1 -55 5 -63 20 -13 25 -13 166 0 191 7 13 6
21 -4 29 -10 9 -15 8 -20 -5z"/>
<path d="M4557 2523 c-11 -11 -8 -461 3 -468 6 -4 10 31 10 97 0 136 7 146 63
88 23 -25 58 -65 77 -90 52 -67 82 -100 92 -100 12 0 -1 21 -37 62 -65 73
-115 137 -115 147 0 5 8 15 18 20 13 8 5 10 -35 11 -48 0 -53 2 -59 25 -3 14
-4 68 -2 120 4 89 1 105 -15 88z"/>
<path d="M2583 2508 c-5 -7 -22 -42 -38 -78 -17 -36 -32 -67 -35 -70 -3 -3
-14 -25 -25 -50 -11 -25 -41 -87 -67 -139 -49 -96 -64 -148 -30 -103 10 13 27
46 38 74 20 52 44 74 72 63 14 -5 14 -4 -1 13 -23 25 -22 33 13 99 17 31 30
62 30 69 0 8 5 14 10 14 6 0 10 6 10 14 0 16 26 46 40 46 12 0 96 -170 105
-210 5 -25 3 -30 -12 -31 -10 0 -3 -6 17 -13 19 -7 37 -21 40 -32 15 -47 56
-124 68 -124 16 0 17 -4 -23 76 -19 38 -35 74 -35 81 0 6 -3 13 -7 15 -8 3
-18 23 -104 205 -24 51 -47 92 -50 93 -4 0 -11 -6 -16 -12z"/>
<path d="M4230 960 c0 -11 -4 -20 -10 -20 -5 0 -10 -5 -10 -12 0 -15 -63 -142
-72 -146 -5 -2 -8 -10 -8 -18 0 -8 -7 -26 -16 -39 -9 -13 -13 -29 -9 -35 4 -7
17 7 30 32 l23 43 85 3 85 3 18 -40 c11 -22 25 -43 32 -46 7 -2 11 -1 9 3 -10
17 -55 119 -61 140 -4 12 -12 22 -17 22 -5 0 -9 6 -9 12 0 19 -52 118 -62 118
-4 0 -8 -9 -8 -20z"/>
<path d="M6412 960 c-14 -24 -16 -60 -2 -60 6 0 10 -13 10 -30 0 -21 5 -30 17
-30 22 0 92 -80 93 -106 0 -13 -10 -24 -27 -31 -24 -9 -25 -11 -7 -12 12 -1
27 6 34 14 17 20 21 19 53 -10 18 -17 27 -21 27 -12 0 8 -6 20 -14 27 -17 13
-10 39 13 57 14 11 14 12 -1 13 -10 0 -18 -4 -18 -10 0 -16 -47 -11 -54 6 -3
8 -10 12 -16 9 -5 -3 -10 1 -10 9 0 9 -4 16 -9 16 -5 0 -13 9 -16 21 -5 15 1
29 24 53 17 18 31 39 31 47 0 45 -103 69 -128 29z"/>
<path d="M6876 964 c-3 -8 -6 -39 -6 -68 0 -29 -4 -56 -9 -62 -9 -8 -15 -102
-11 -149 4 -33 17 34 19 89 0 27 6 64 13 82 13 38 38 54 38 25 0 -10 7 -24 15
-31 8 -7 15 -19 15 -26 0 -8 5 -14 10 -14 6 0 10 -6 10 -14 0 -7 7 -19 15 -26
8 -7 15 -20 15 -30 0 -10 7 -20 15 -24 8 -3 14 -11 13 -18 -6 -29 25 -10 45
27 12 22 28 46 35 53 6 7 12 20 12 28 0 8 3 14 8 14 7 0 25 30 38 63 4 10 12
16 18 14 11 -4 18 -34 36 -156 13 -84 20 -89 20 -13 0 33 -4 64 -10 67 -5 3
-10 39 -10 78 0 97 -11 111 -44 59 -14 -23 -27 -47 -28 -54 -3 -12 -7 -19 -35
-52 -7 -8 -13 -22 -13 -31 0 -8 -4 -15 -9 -15 -5 0 -13 -10 -17 -22 -14 -45
-44 -50 -62 -10 -25 58 -59 112 -65 105 -4 -3 -7 3 -7 13 0 11 -4 24 -9 30 -5
5 -18 26 -29 47 -15 28 -21 33 -26 21z"/>
</g>
</svg>
